<svg width="63" height="37" fill="none" xmlns="http://www.w3.org/2000/svg"><g clip-path="url(#a)" fill="#B61E1E"><path d="M38.793 34a1.85 1.85 0 0 1-1.427-.677l-9.93-12.05a1.918 1.918 0 0 1 .23-2.67 1.84 1.84 0 0 1 2.623.234l8.501 10.316L59.71 3.68a1.84 1.84 0 0 1 2.623-.24c.79.672.894 1.867.235 2.67L40.222 33.32a1.85 1.85 0 0 1-1.427.68h-.002Z"/><path d="M31.469 61.938C14.669 61.938 1 48.269 1 31.468 1 14.669 14.668 1 31.469 1c6.351 0 12.44 1.939 17.608 5.606a2.344 2.344 0 0 1-2.712 3.823 25.598 25.598 0 0 0-14.896-4.742c-14.216 0-25.782 11.566-25.782 25.782S17.254 57.25 31.47 57.25s25.78-11.565 25.78-25.781c0-2.711-.419-5.38-1.244-7.932a2.344 2.344 0 0 1 4.46-1.442 30.413 30.413 0 0 1 1.471 9.374c0 16.8-13.668 30.468-30.468 30.468Z"/></g><defs><clipPath id="a"><path fill="#fff" d="M0 0h63v37H0z"/></clipPath></defs></svg>