<svg width="63" height="37" viewBox="0 0 63 37" fill="none" xmlns="http://www.w3.org/2000/svg">
<g clip-path="url(#clip0_4_626)">
<path d="M38.7928 34C38.2423 34 37.7199 33.7521 37.3661 33.3228L27.4354 21.2729C26.7746 20.4709 26.8776 19.2758 27.6656 18.6032C28.4535 17.9307 29.628 18.0355 30.2889 18.8374L38.7904 29.1532L59.709 3.67983C60.3685 2.87693 61.5428 2.76975 62.332 3.44094C63.1211 4.11213 63.2262 5.30717 62.5667 6.11018L40.2217 33.3202C39.8683 33.7506 39.3457 33.9994 38.7946 34C38.7939 34 38.7934 34 38.7928 34Z" fill="#B61E1E"/>
<path d="M31.4688 61.9375C14.6683 61.9375 1 48.2692 1 31.4688C1 14.6683 14.6683 1 31.4688 1C37.8202 1 43.9092 2.93857 49.0775 6.6061C50.1331 7.35523 50.3815 8.81831 49.6325 9.87388C48.8834 10.9294 47.4203 11.178 46.3646 10.4289C41.9936 7.3271 36.8427 5.6875 31.4688 5.6875C17.2529 5.6875 5.6875 17.2529 5.6875 31.4688C5.6875 45.6846 17.2529 57.25 31.4688 57.25C45.6846 57.25 57.25 45.6846 57.25 31.4688C57.25 28.7579 56.8315 26.0894 56.0059 23.5372C55.6075 22.3056 56.2831 20.9843 57.5147 20.5858C58.7468 20.1878 60.0676 20.8631 60.4659 22.0945C61.4424 25.1135 61.9375 28.2675 61.9375 31.4688C61.9375 48.2692 48.2692 61.9375 31.4688 61.9375Z" fill="#B61E1E"/>
</g>
<defs>
<clipPath id="clip0_4_626">
<rect width="63" height="37" fill="white"/>
</clipPath>
</defs>
</svg>
